# xmcd
#
# Track frame offsets: 
#        150
#        21707
#        34387
#        49130
#        68047
#        83962
#        98592
#        110982
#        126292
#        142262
#
# Disc length: 2137 seconds
#
# Revision: 3
# Processed by: cddbd v1.4PL0 Copyright (c) Steve Scherf et al.
# Submitted via: ExactAudioCopy v0.90a11
#
DISCID=9a08570a
DTITLE=Haggard, Merle and Willie Nelson - Pancho and Lefty
DYEAR=1900
DGENRE=
TTITLE0=Pancho And Lefty
TTITLE1=It's My Lazy Day
TTITLE2=My Mary
TTITLE3=Half A Man
TTITLE4=Reasons To Quit
TTITLE5=No Reason To Quit
TTITLE6=Still Water Runs The Depest
TTITLE7=My Life's Been A Pleasure
TTITLE8=All The Soft Places To Fall
TTITLE9=Opportunity To Cry
EXTD=
EXTT0=
EXTT1=
EXTT2=
EXTT3=
EXTT4=
EXTT5=
EXTT6=
EXTT7=
EXTT8=
EXTT9=
PLAYORDER=
